<svg xmlns="http://www.w3.org/2000/svg" width="429.09429931640625" height="444.0928955078125" viewBox="-216.39788818359375 -220.75465393066406 429.09429931640625 444.0928955078125"><title>Neo4j Graph Visualization</title><desc>Created using Neo4j (http://www.neo4j.com/)</desc><g class="layer relationships"><g class="relationship" transform="translate(26.787196012635683 194.3382088436482) rotate(333.1461107346538)"><path class="outline" fill="#A5ABB6" stroke="none" d="M 21.40063509461097,12.933012701892217 L 21.90063509461097,12.06698729810778 A 95.79795967063897 95.79795967063897 0 0 0 42.18298631299426,20.83449083109015 L 41.89470638812024,21.79203701008865 A 96.79795967063897 96.79795967063897 0 0 1 21.40063509461097,12.933012701892217 Z M 93.30571640276608,23.00404343433209 L 93.06287965752045,22.03397626389568 A 95.79795967063897 95.79795967063897 0 0 0 113.73585402138485,14.231988049490491 L 112.35995084215712,11.566112875857826 L 120.1855466230657,11.465859826897866 L 115.57039159368851,17.78648828100071 L 114.19448841446078,15.120613107368046 A 96.79795967063897 96.79795967063897 0 0 1 93.30571640276608,23.00404343433209"/><text text-anchor="middle" pointer-events="none" font-size="8px" fill="#000000" x="67.53003636965369" y="28.374731501625504" font-family="sans-serif">PRODUCED</text></g><g class="relationship" transform="translate(26.787196012635683 194.3382088436482) rotate(333.1461107346538)"><path class="outline" fill="#A5ABB6" stroke="none" d="M 25 0.5 L 44.25527403500229 0.5 L 44.25527403500229 -0.5 L 25 -0.5 Z M 91.14589903500229 0.5 L 110.40117307000457 0.5 L 110.40117307000457 3.5 L 117.40117307000457 0 L 110.40117307000457 -3.5 L 110.40117307000457 -0.5 L 91.14589903500229 -0.5 Z"/><text text-anchor="middle" pointer-events="none" font-size="8px" fill="#000000" x="67.70058653500229" y="3" font-family="sans-serif">DIRECTED</text></g><g class="relationship" transform="translate(26.787196012635683 194.3382088436482) rotate(333.1461107346538)"><path class="outline" fill="#A5ABB6" stroke="none" d="M 21.40063509461097,-12.933012701892217 L 21.90063509461097,-12.06698729810778 A 95.79795967063897 95.79795967063897 0 0 1 49.893863752178305,-22.810564869484708 L 49.68607486767398,-23.788738565448995 A 96.79795967063897 96.79795967063897 0 0 0 21.40063509461097,-12.933012701892217 Z M 85.42891202689493,-24.631370294437048 L 85.26744894285737,-23.64449154175611 A 95.79795967063897 95.79795967063897 0 0 1 113.73585402138485,-14.231988049490491 L 112.35995084215712,-11.566112875857826 L 120.1855466230657,-11.465859826897866 L 115.57039159368851,-17.78648828100071 L 114.19448841446078,-15.120613107368046 A 96.79795967063897 96.79795967063897 0 0 0 85.42891202689493,-24.631370294437048"/><text text-anchor="middle" pointer-events="none" font-size="8px" fill="#000000" x="67.53003636965369" y="-22.374731501625504" font-family="sans-serif">WROTE</text></g><g class="relationship" transform="translate(183.69640195974154 -77.59370370366254) rotate(220.69334326040877)"><path class="outline" fill="#A5ABB6" stroke="none" d="M 24.018736134675446,6.953439040707552 L 24.277555179777966,5.987513214418485 A 175.10356850075564 175.10356850075564 0 0 0 44.176921022348694,10.09895779624921 L 44.03174538276298,11.088363695600378 A 176.10356850075564 176.10356850075564 0 0 1 24.018736134675446,6.953439040707552 Z M 90.91282521609057,11.659298299008896 L 90.79178773897203,10.666650360849161 A 175.10356850075564 175.10356850075564 0 0 0 110.78537825393383,7.041036508552765 L 110.07972128131932,4.125209312541223 L 117.70658454006318,5.880474771787517 L 111.72625421741982,10.928806103234821 L 111.02059724480532,8.01297890722328 A 176.10356850075564 176.10356850075564 0 0 1 90.91282521609057,11.659298299008896"/><text text-anchor="middle" pointer-events="none" font-size="8px" fill="#000000" x="67.45928890849623" y="15.44100197822354" transform="rotate(180 67.45928890849623 12.44100197822354)" font-family="sans-serif">DIRECTED</text></g><g class="relationship" transform="translate(183.69640195974154 -77.59370370366254) rotate(220.69334326040877)"><path class="outline" fill="#A5ABB6" stroke="none" d="M 24.018736134675446,-6.953439040707552 L 24.277555179777966,-5.987513214418485 A 175.10356850075564 175.10356850075564 0 0 1 49.672785866044094,-10.816708767298223 L 49.55899659334257,-11.810213674894584 A 176.10356850075564 176.10356850075564 0 0 0 24.018736134675446,-6.953439040707552 Z M 85.36963399375094,-12.246328460106383 L 85.28007339850102,-11.250347084889711 A 175.10356850075564 175.10356850075564 0 0 1 110.78537825393383,-7.041036508552765 L 110.07972128131932,-4.125209312541223 L 117.70658454006318,-5.880474771787517 L 111.72625421741982,-10.928806103234821 L 111.02059724480532,-8.01297890722328 A 176.10356850075564 176.10356850075564 0 0 0 85.36963399375094,-12.246328460106383"/><text text-anchor="middle" pointer-events="none" font-size="8px" fill="#000000" x="67.4592889084962" y="-9.44100197822354" transform="rotate(180 67.4592889084962 -12.44100197822354)" font-family="sans-serif">WROTE</text></g><g class="relationship" transform="translate(-64.0739485980673 -191.7546586689765) rotate(368.7534309415155)"><path class="outline" fill="#A5ABB6" stroke="none" d="M 24.018736134675446,6.953439040707552 L 24.277555179777966,5.987513214418485 A 174.60421417803084 174.60421417803084 0 0 0 44.05080920724207,10.077040981746762 L 43.90523630640101,11.06638850943395 A 175.60421417803084 175.60421417803084 0 0 1 24.018736134675446,6.953439040707552 Z M 90.78588737990992,11.638292270977445 L 90.66449259268639,10.64568796631471 A 174.60421417803084 174.60421417803084 0 0 0 110.53162484126854,7.039738935654606 L 109.8260890578907,4.123882413400224 L 117.45287935709173,5.879464861482034 L 111.47233921910566,10.92754763199378 L 110.76680343572782,8.011691109739399 A 175.60421417803084 175.60421417803084 0 0 1 90.78588737990992,11.638292270977445"/><text text-anchor="middle" pointer-events="none" font-size="8px" fill="#000000" x="67.33248876368688" y="15.423979568392923" font-family="sans-serif">DIRECTED</text></g><g class="relationship" transform="translate(-64.0739485980673 -191.7546586689765) rotate(368.7534309415155)"><path class="outline" fill="#A5ABB6" stroke="none" d="M 24.018736134675446,-6.953439040707552 L 24.277555179777966,-5.987513214418485 A 174.60421417803084 174.60421417803084 0 0 1 49.54637183987745,-10.796744555781231 L 49.43227333762698,-11.790213997578121 A 175.60421417803084 175.60421417803084 0 0 0 24.018736134675446,-6.953439040707552 Z M 85.24283768776317,-12.227072189302561 L 85.1530084852159,-11.231115004294224 A 174.60421417803084 174.60421417803084 0 0 1 110.53162484126854,-7.039738935654606 L 109.8260890578907,-4.123882413400224 L 117.45287935709173,-5.879464861482034 L 111.47233921910566,-10.92754763199378 L 110.76680343572782,-8.011691109739399 A 175.60421417803084 175.60421417803084 0 0 0 85.24283768776317,-12.227072189302561"/><text text-anchor="middle" pointer-events="none" font-size="8px" fill="#000000" x="67.33248876368685" y="-9.423979568392895" font-family="sans-serif">WROTE</text></g><g class="relationship" transform="translate(-187.02060063933448 -23.358463971885246) rotate(439.0023841730466)"><path class="outline" fill="#A5ABB6" stroke="none" d="M 21.40063509461097,12.933012701892217 L 21.90063509461097,12.06698729810778 A 95.46640102193186 95.46640102193186 0 0 0 49.732227266747245,22.759602837013915 L 49.523760118873334,23.73763220684762 A 96.46640102193186 96.46640102193186 0 0 1 21.40063509461097,12.933012701892217 Z M 85.26576562627613,24.582093766335817 L 85.10372029385884,23.595310451599616 A 95.46640102193186 95.46640102193186 0 0 0 113.40923585591467,14.229023104673498 L 112.03360841688674,11.563005634927013 L 119.85921452516112,11.463561991899411 L 115.24340577461858,17.78371306433548 L 113.86777833559064,15.117695594588994 A 96.46640102193186 96.46640102193186 0 0 1 85.26576562627613,24.582093766335817"/><text text-anchor="middle" pointer-events="none" font-size="8px" fill="#000000" x="67.36710977125666" y="28.330286066839633" font-family="sans-serif">WROTE</text></g><g class="relationship" transform="translate(-187.02060063933448 -23.358463971885246) rotate(439.0023841730466)"><path class="outline" fill="#A5ABB6" stroke="none" d="M 25 0.5 L 44.092700886524256 0.5 L 44.092700886524256 -0.5 L 25 -0.5 Z M 90.98332588652426 0.5 L 110.07602677304851 0.5 L 110.07602677304851 3.5 L 117.07602677304851 0 L 110.07602677304851 -3.5 L 110.07602677304851 -0.5 L 90.98332588652426 -0.5 Z"/><text text-anchor="middle" pointer-events="none" font-size="8px" fill="#000000" x="67.53801338652426" y="3" font-family="sans-serif">DIRECTED</text></g><g class="relationship" transform="translate(-187.02060063933448 -23.358463971885246) rotate(439.0023841730466)"><path class="outline" fill="#A5ABB6" stroke="none" d="M 21.40063509461097,-12.933012701892217 L 21.90063509461097,-12.06698729810778 A 95.46640102193186 95.46640102193186 0 0 1 42.02316093846159,-20.77711495989901 L 41.733942172785355,-21.73437798831948 A 96.46640102193186 96.46640102193186 0 0 0 21.40063509461097,-12.933012701892217 Z M 93.14149893327189,-22.948963038462992 L 92.89781135833738,-21.979109252667143 A 95.46640102193186 95.46640102193186 0 0 1 113.40923585591467,-14.229023104673498 L 112.03360841688674,-11.563005634927013 L 119.85921452516112,-11.463561991899411 L 115.24340577461858,-17.78371306433548 L 113.86777833559064,-15.117695594588994 A 96.46640102193186 96.46640102193186 0 0 0 93.14149893327189,-22.948963038462992"/><text text-anchor="middle" pointer-events="none" font-size="8px" fill="#000000" x="67.36710977125665" y="-22.330286066839633" font-family="sans-serif">PRODUCED</text></g></g><g class="layer nodes"><g class="node" aria-label="graph-node45" transform="translate(26.787196012635683,194.3382088436482)"><circle class="outline" cx="0" cy="0" r="25" fill="#C990C0" stroke="#b261a5" stroke-width="2px"/><text class="caption" text-anchor="middle" pointer-events="none" x="0" y="0" font-size="10px" fill="#FFFFFF" font-family="sans-serif"> Cameron</text><text class="caption" text-anchor="middle" pointer-events="none" x="0" y="10" font-size="10px" fill="#FFFFFF" font-family="sans-serif"> Crowe</text></g><g class="node" aria-label="graph-node37" transform="translate(153.8320192540891,130.01319831693894)"><circle class="outline" cx="0" cy="0" r="25" fill="#F79767" stroke="#f36924" stroke-width="2px"/><text class="caption" text-anchor="middle" pointer-events="none" x="0" y="0" font-size="10px" fill="#FFFFFF" font-family="sans-serif"> Jerry</text><text class="caption" text-anchor="middle" pointer-events="none" x="0" y="10" font-size="10px" fill="#FFFFFF" font-family="sans-serif"> Maguire</text></g><g class="node" aria-label="graph-node5" transform="translate(183.69640195974154,-77.59370370366254)"><circle class="outline" cx="0" cy="0" r="25" fill="#C990C0" stroke="#b261a5" stroke-width="2px"/><text class="caption" text-anchor="middle" pointer-events="none" x="0" y="0" font-size="10px" fill="#FFFFFF" font-family="sans-serif"> Lilly</text><text class="caption" text-anchor="middle" pointer-events="none" x="0" y="10" font-size="10px" fill="#FFFFFF" font-family="sans-serif"> Wach…</text></g><g class="node" aria-label="graph-node121" transform="translate(76.02666810937944,-170.1825231096617)"><circle class="outline" cx="0" cy="0" r="25" fill="#F79767" stroke="#f36924" stroke-width="2px"/><text class="caption" text-anchor="middle" pointer-events="none" x="0" y="0" font-size="10px" fill="#FFFFFF" font-family="sans-serif"> Speed</text><text class="caption" text-anchor="middle" pointer-events="none" x="0" y="10" font-size="10px" fill="#FFFFFF" font-family="sans-serif"> Racer</text></g><g class="node" aria-label="graph-node6" transform="translate(-64.0739485980673,-191.7546586689765)"><circle class="outline" cx="0" cy="0" r="25" fill="#C990C0" stroke="#b261a5" stroke-width="2px"/><text class="caption" text-anchor="middle" pointer-events="none" x="0" y="0" font-size="10px" fill="#FFFFFF" font-family="sans-serif"> Lana</text><text class="caption" text-anchor="middle" pointer-events="none" x="0" y="10" font-size="10px" fill="#FFFFFF" font-family="sans-serif"> Wach…</text></g><g class="node" aria-label="graph-node156" transform="translate(-187.02060063933448,-23.358463971885246)"><circle class="outline" cx="0" cy="0" r="25" fill="#C990C0" stroke="#b261a5" stroke-width="2px"/><text class="caption" text-anchor="middle" pointer-events="none" x="0" y="0" font-size="10px" fill="#FFFFFF" font-family="sans-serif"> Nancy</text><text class="caption" text-anchor="middle" pointer-events="none" x="0" y="10" font-size="10px" fill="#FFFFFF" font-family="sans-serif"> Meyers</text></g><g class="node" aria-label="graph-node154" transform="translate(-159.9170201273595,116.10835397075977)"><circle class="outline" cx="0" cy="0" r="25" fill="#F79767" stroke="#f36924" stroke-width="2px"/><text class="caption" text-anchor="middle" pointer-events="none" x="0" y="5" font-size="10px" fill="#FFFFFF" font-family="sans-serif"> Somethi…</text></g></g></svg>