<svg xmlns="http://www.w3.org/2000/svg" width="335.25982666015625" height="323.29937744140625" viewBox="-164.7475128173828 -99.67681121826172 335.25982666015625 323.29937744140625"><title>Neo4j Graph Visualization</title><desc>Created using Neo4j (http://www.neo4j.com/)</desc><g class="layer relationships"><g class="relationship" transform="translate(70.63301645541875 194.62253225535295) rotate(239.252778402489)"><path class="outline" fill="#A5ABB6" stroke="none" d="M 25 0.5 L 50.994422147029525 0.5 L 50.994422147029525 -0.5 L 25 -0.5 Z M 86.76785964702952 0.5 L 112.76228179405905 0.5 L 112.76228179405905 3.5 L 119.76228179405905 0 L 112.76228179405905 -3.5 L 112.76228179405905 -0.5 L 86.76785964702952 -0.5 Z"/><text text-anchor="middle" pointer-events="none" font-size="8px" fill="#000000" x="68.88114089702952" y="3" transform="rotate(180 68.88114089702952 0)" font-family="sans-serif">WROTE</text></g><g class="relationship" transform="translate(141.51232246964858 52.187061431804395) rotate(532.909602341559)"><path class="outline" fill="#A5ABB6" stroke="none" d="M 25 0.5 L 46.721642917190835 0.5 L 46.721642917190835 -0.5 L 25 -0.5 Z M 92.28414291719083 0.5 L 114.00578583438167 0.5 L 114.00578583438167 3.5 L 121.00578583438167 0 L 114.00578583438167 -3.5 L 114.00578583438167 -0.5 L 92.28414291719083 -0.5 Z"/><text text-anchor="middle" pointer-events="none" font-size="8px" fill="#000000" x="69.50289291719083" y="3" transform="rotate(180 69.50289291719083 0)" font-family="sans-serif">ACTED_IN</text></g><g class="relationship" transform="translate(66.97037671683937 -59.153524446578345) rotate(478.53726955786965)"><path class="outline" fill="#A5ABB6" stroke="none" d="M 25 0.5 L 46.681250152366644 0.5 L 46.681250152366644 -0.5 L 25 -0.5 Z M 93.57187515236664 0.5 L 115.25312530473329 0.5 L 115.25312530473329 3.5 L 122.25312530473329 0 L 115.25312530473329 -3.5 L 115.25312530473329 -0.5 L 93.57187515236664 -0.5 Z"/><text text-anchor="middle" pointer-events="none" font-size="8px" fill="#000000" x="70.12656265236664" y="3" transform="rotate(180 70.12656265236664 0)" font-family="sans-serif">DIRECTED</text></g><g class="relationship" transform="translate(-45.29231193162505 -70.67681185753125) rotate(433.43159097340146)"><path class="outline" fill="#A5ABB6" stroke="none" d="M 25 0.5 L 47.21330889277914 0.5 L 47.21330889277914 -0.5 L 25 -0.5 Z M 92.77580889277914 0.5 L 114.98911778555828 0.5 L 114.98911778555828 3.5 L 121.98911778555828 0 L 114.98911778555828 -3.5 L 114.98911778555828 -0.5 L 92.77580889277914 -0.5 Z"/><text text-anchor="middle" pointer-events="none" font-size="8px" fill="#000000" x="69.99455889277914" y="3" font-family="sans-serif">ACTED_IN</text></g><g class="relationship" transform="translate(-135.74751360984862 7.840510840980486) rotate(385.2283145257253)"><path class="outline" fill="#A5ABB6" stroke="none" d="M 25 0.5 L 46.882684613580025 0.5 L 46.882684613580025 -0.5 L 25 -0.5 Z M 92.44518461358003 0.5 L 114.32786922716005 0.5 L 114.32786922716005 3.5 L 121.32786922716005 0 L 114.32786922716005 -3.5 L 114.32786922716005 -0.5 L 92.44518461358003 -0.5 Z"/><text text-anchor="middle" pointer-events="none" font-size="8px" fill="#000000" x="69.66393461358003" y="3" font-family="sans-serif">ACTED_IN</text></g><g class="relationship" transform="translate(-129.09036231163043 143.32257043922013) rotate(329.8182917865813)"><path class="outline" fill="#A5ABB6" stroke="none" d="M 25 0.5 L 51.327486104810546 0.5 L 51.327486104810546 -0.5 L 25 -0.5 Z M 87.10092360481055 0.5 L 113.42840970962109 0.5 L 113.42840970962109 3.5 L 120.42840970962109 0 L 113.42840970962109 -3.5 L 113.42840970962109 -0.5 L 87.10092360481055 -0.5 Z"/><text text-anchor="middle" pointer-events="none" font-size="8px" fill="#000000" x="69.21420485481055" y="3" font-family="sans-serif">WROTE</text></g></g><g class="layer nodes"><g class="node" aria-label="graph-node171" transform="translate(-3.37690435790835,70.2093100825163)"><circle class="outline" cx="0" cy="0" r="25" fill="#F79767" stroke="#f36924" stroke-width="2px"/><text class="caption" text-anchor="middle" pointer-events="none" x="0" y="-5" font-size="10px" fill="#FFFFFF" font-family="sans-serif"> Captain</text><text class="caption" text-anchor="middle" pointer-events="none" x="0" y="5" font-size="10px" fill="#FFFFFF" font-family="sans-serif"> America:</text><text class="caption" text-anchor="middle" pointer-events="none" x="0" y="15" font-size="10px" fill="#FFFFFF" font-family="sans-serif"> Th</text></g><g class="node" aria-label="graph-node177" transform="translate(70.63301645541875,194.62253225535295)"><circle class="outline" cx="0" cy="0" r="25" fill="#C990C0" stroke="#b261a5" stroke-width="2px"/><text class="caption" text-anchor="middle" pointer-events="none" x="0" y="0" font-size="10px" fill="#FFFFFF" font-family="sans-serif"> Stephen</text><text class="caption" text-anchor="middle" pointer-events="none" x="0" y="10" font-size="10px" fill="#FFFFFF" font-family="sans-serif"> McFe…</text></g><g class="node" aria-label="graph-node174" transform="translate(141.51232246964858,52.187061431804395)"><circle class="outline" cx="0" cy="0" r="25" fill="#C990C0" stroke="#b261a5" stroke-width="2px"/><text class="caption" text-anchor="middle" pointer-events="none" x="0" y="0" font-size="10px" fill="#FFFFFF" font-family="sans-serif"> Sebastian</text><text class="caption" text-anchor="middle" pointer-events="none" x="0" y="10" font-size="10px" fill="#FFFFFF" font-family="sans-serif"> Stan</text></g><g class="node" aria-label="graph-node175" transform="translate(66.97037671683937,-59.153524446578345)"><circle class="outline" cx="0" cy="0" r="25" fill="#C990C0" stroke="#b261a5" stroke-width="2px"/><text class="caption" text-anchor="middle" pointer-events="none" x="0" y="0" font-size="10px" fill="#FFFFFF" font-family="sans-serif"> Joe</text><text class="caption" text-anchor="middle" pointer-events="none" x="0" y="10" font-size="10px" fill="#FFFFFF" font-family="sans-serif"> Johnst…</text></g><g class="node" aria-label="graph-node173" transform="translate(-45.29231193162505,-70.67681185753125)"><circle class="outline" cx="0" cy="0" r="25" fill="#C990C0" stroke="#b261a5" stroke-width="2px"/><text class="caption" text-anchor="middle" pointer-events="none" x="0" y="0" font-size="10px" fill="#FFFFFF" font-family="sans-serif"> Hayley</text><text class="caption" text-anchor="middle" pointer-events="none" x="0" y="10" font-size="10px" fill="#FFFFFF" font-family="sans-serif"> Atwell</text></g><g class="node" aria-label="graph-node172" transform="translate(-135.74751360984862,7.840510840980486)"><circle class="outline" cx="0" cy="0" r="25" fill="#C990C0" stroke="#b261a5" stroke-width="2px"/><text class="caption" text-anchor="middle" pointer-events="none" x="0" y="0" font-size="10px" fill="#FFFFFF" font-family="sans-serif"> Chris</text><text class="caption" text-anchor="middle" pointer-events="none" x="0" y="10" font-size="10px" fill="#FFFFFF" font-family="sans-serif"> Evans</text></g><g class="node" aria-label="graph-node176" transform="translate(-129.09036231163043,143.32257043922013)"><circle class="outline" cx="0" cy="0" r="25" fill="#C990C0" stroke="#b261a5" stroke-width="2px"/><text class="caption" text-anchor="middle" pointer-events="none" x="0" y="5" font-size="10px" fill="#FFFFFF" font-family="sans-serif"> Christop…</text></g></g></svg>