<svg xmlns="http://www.w3.org/2000/svg" width="211.1533203125" height="211.48831176757812" viewBox="-150.22378540039062 -149.63992309570312 211.1533203125 211.48831176757812"><title>Neo4j Graph Visualization</title><desc>Created using Neo4j (http://www.neo4j.com/)</desc><g class="layer relationships"><g class="relationship" transform="translate(-37.488057217667624 32.8483890407568) rotate(275.1092760070525)"><path class="outline" fill="#A5ABB6" stroke="none" d="M 21.40063509461097,12.933012701892217 L 21.90063509461097,12.06698729810778 A 107.71011466349445 107.71011466349445 0 0 0 43.1989395768856,21.45922874227405 L 42.89667685113152,22.41245339817617 A 108.71011466349445 108.71011466349445 0 0 1 21.40063509461097,12.933012701892217 Z M 104.05650839663272,23.748964977009933 L 103.79617552827105,22.783446050395554 A 107.71011466349445 107.71011466349445 0 0 0 125.48444499092378,14.330580212080093 L 124.09937304888953,11.669457194369432 L 131.92457735592103,11.542266183618647 L 127.33120758030276,17.87874423569431 L 125.94613563826852,15.217621217983648 A 108.71011466349445 108.71011466349445 0 0 1 104.05650839663272,23.748964977009933"/><text text-anchor="middle" pointer-events="none" font-size="8px" fill="#000000" x="73.3915663690228" y="29.97157815311232" font-family="sans-serif">PublicTransport</text></g><g class="relationship" transform="translate(-23.76454305579423 -120.63991947488752) rotate(494.3637023444712)"><path class="outline" fill="#A5ABB6" stroke="none" d="M 25 0.5 L 56.52437355550913 0.5 L 56.52437355550913 -0.5 L 25 -0.5 Z M 75.86031105550913 0.5 L 107.38468461101826 0.5 L 107.38468461101826 3.5 L 114.38468461101826 0 L 107.38468461101826 -3.5 L 107.38468461101826 -0.5 L 75.86031105550913 -0.5 Z"/><text text-anchor="middle" pointer-events="none" font-size="8px" fill="#000000" x="66.19234230550913" y="3" transform="rotate(180 66.19234230550913 0)" font-family="sans-serif">trek</text></g><g class="relationship" transform="translate(-121.22378810836238 -20.99160861164958) rotate(353.63454454110695)"><path class="outline" fill="#A5ABB6" stroke="none" d="M 25 0.5 L 63.8837210708531 0.5 L 63.8837210708531 -0.5 L 25 -0.5 Z M 83.2196585708531 0.5 L 122.1033796417062 0.5 L 122.1033796417062 3.5 L 129.1033796417062 0 L 122.1033796417062 -3.5 L 122.1033796417062 -0.5 L 83.2196585708531 -0.5 Z"/><text text-anchor="middle" pointer-events="none" font-size="8px" fill="#000000" x="73.5516898208531" y="3" font-family="sans-serif">trek</text></g><g class="relationship" transform="translate(-37.488057217667624 32.8483890407568) rotate(275.1092760070525)"><path class="outline" fill="#A5ABB6" stroke="none" d="M 25 0.5 L 63.88233250175493 0.5 L 63.88233250175493 -0.5 L 25 -0.5 Z M 83.21827000175493 0.5 L 122.10060250350986 0.5 L 122.10060250350986 3.5 L 129.10060250350986 0 L 122.10060250350986 -3.5 L 122.10060250350986 -0.5 L 83.21827000175493 -0.5 Z"/><text text-anchor="middle" pointer-events="none" font-size="8px" fill="#000000" x="73.55030125175493" y="3" font-family="sans-serif">trek</text></g><g class="relationship" transform="translate(-37.488057217667624 32.8483890407568) rotate(275.1092760070525)"><path class="outline" fill="#A5ABB6" stroke="none" d="M 21.40063509461097,-12.933012701892217 L 21.90063509461097,-12.06698729810778 A 107.71011466349445 107.71011466349445 0 0 1 62.481133818786766,-25.676275727130886 L 62.35789043863585,-26.668652202692954 A 108.71011466349445 108.71011466349445 0 0 0 21.40063509461097,-12.933012701892217 Z M 84.42794243142666,-27.150943917507163 L 84.34816834571336,-26.15413094846602 A 107.71011466349445 107.71011466349445 0 0 1 125.48444499092378,-14.330580212080093 L 124.09937304888953,-11.669457194369432 L 131.92457735592103,-11.542266183618647 L 127.33120758030276,-17.87874423569431 L 125.94613563826852,-15.217621217983648 A 108.71011466349445 108.71011466349445 0 0 0 84.42794243142666,-27.150943917507163"/><text text-anchor="middle" pointer-events="none" font-size="8px" fill="#000000" x="73.39156636902281" y="-23.97157815311232" font-family="sans-serif">road</text></g></g><g class="layer nodes"><g class="node" aria-label="graph-node179" transform="translate(-37.488057217667624,32.8483890407568)"><circle class="outline" cx="0" cy="0" r="25" fill="#57C7E3" stroke="#23b3d7" stroke-width="2px"/><text class="caption" text-anchor="middle" pointer-events="none" x="0" y="5" font-size="10px" fill="#2A2C34" font-family="sans-serif"> Darjeeling</text></g><g class="node" aria-label="graph-node181" transform="translate(31.929535712303657,-38.07701231416813)"><circle class="outline" cx="0" cy="0" r="25" fill="#F16667" stroke="#eb2728" stroke-width="2px"/><text class="caption" text-anchor="middle" pointer-events="none" x="0" y="5" font-size="10px" fill="#FFFFFF" font-family="sans-serif"> Sandakp…</text></g><g class="node" aria-label="graph-node178" transform="translate(-23.76454305579423,-120.63991947488752)"><circle class="outline" cx="0" cy="0" r="25" fill="#57C7E3" stroke="#23b3d7" stroke-width="2px"/><text class="caption" text-anchor="middle" pointer-events="none" x="0" y="5" font-size="10px" fill="#2A2C34" font-family="sans-serif"> Rimbik</text></g><g class="node" aria-label="graph-node180" transform="translate(-121.22378810836238,-20.99160861164958)"><circle class="outline" cx="0" cy="0" r="25" fill="#D9C8AE" stroke="#c0a378" stroke-width="2px"/><text class="caption" text-anchor="middle" pointer-events="none" x="0" y="5" font-size="10px" fill="#2A2C34" font-family="sans-serif"> BhikeBh…</text></g></g></svg>