<svg xmlns="http://www.w3.org/2000/svg" width="530.2999267578125" height="391.71923828125" viewBox="-248.15042114257812 -205.7510986328125 530.2999267578125 391.71923828125"><title>Neo4j Graph Visualization</title><desc>Created using Neo4j (http://www.neo4j.com/)</desc><g class="layer relationships"><g class="relationship" transform="translate(-46.35367082835528 -52.00021091040386) rotate(368.37949030680454)"><path class="outline" fill="#A5ABB6" stroke="none" d="M 24.018736134675446,-6.953439040707552 L 24.277555179777966,-5.987513214418485 A 182.17809838685687 182.17809838685687 0 0 1 59.62926339401442,-11.812561698354983 L 59.56449461361039,-12.8104619965236 A 183.17809838685687 183.17809838685687 0 0 0 24.018736134675446,-6.953439040707552 Z M 78.9429358532267,-13.040894655470623 L 78.90191446870233,-12.041736386720515 A 182.17809838685687 182.17809838685687 0 0 1 114.38214050085975,-7.058963643383404 L 113.67480919860644,-4.14354215947192 L 121.30267918036209,-5.894427518777592 L 115.32524890386416,-10.946192288598715 L 114.61791760161086,-8.030770804687231 A 183.17809838685687 183.17809838685687 0 0 0 78.9429358532267,-13.040894655470623"/><text text-anchor="middle" pointer-events="none" font-size="8px" fill="#000000" x="69.25661086744296" y="-9.682167384232798" font-family="sans-serif">trek</text></g><g class="relationship" transform="translate(97.6898664335791 -30.782395535811645) rotate(361.75079560248827)"><path class="outline" fill="#A5ABB6" stroke="none" d="M 21.40063509461097,-12.933012701892217 L 21.90063509461097,-12.06698729810778 A 109.16560274342875 109.16560274342875 0 0 1 63.19671536620555,-25.88081386404656 L 63.075003757729874,-26.873379370379652 A 110.16560274342875 110.16560274342875 0 0 0 21.40063509461097,-12.933012701892217 Z M 85.14480540488512,-27.35139277331379 L 85.06618405009863,-26.35448822293219 A 109.16560274342875 109.16560274342875 0 0 1 126.92164813559158,-14.341654403227984 L 125.535546367222,-11.681067646942315 L 133.36070086165307,-11.550848069746555 L 128.76978382675102,-17.889103411608875 L 127.38368205838144,-15.228516655323208 A 110.16560274342875 110.16560274342875 0 0 0 85.14480540488512,-27.35139277331379"/><text text-anchor="middle" pointer-events="none" font-size="8px" fill="#000000" x="74.10872838710034" y="-24.166690768516773" font-family="sans-serif">road</text></g><g class="relationship" transform="translate(253.14951595858696 -26.030512950898355) rotate(220.2289855548143)"><path class="outline" fill="#A5ABB6" stroke="none" d="M 21.40063509461097,12.933012701892217 L 21.90063509461097,12.06698729810778 A 97.17561480609696 97.17561480609696 0 0 0 45.39279593661033,21.789659916292834 L 45.13454548343722,22.755737916992516 A 98.17561480609696 98.17561480609696 0 0 1 21.40063509461097,12.933012701892217 Z M 91.38550654734513,23.83626205415385 L 91.17265263152339,22.85917801963106 A 97.17561480609696 97.17561480609696 0 0 0 115.09322198636238,14.244171019801753 L 113.71618579540933,11.578880917616718 L 121.54173825661964,11.475301591275468 L 116.92927024096645,17.797891156048465 L 115.5522340500134,15.13260105386343 A 98.17561480609696 98.17561480609696 0 0 1 91.38550654734513,23.83626205415385"/><text text-anchor="middle" pointer-events="none" font-size="8px" fill="#000000" x="68.20714785919097" y="28.559406659645674" transform="rotate(180 68.20714785919097 25.559406659645674)" font-family="sans-serif">twowheeler</text></g><g class="relationship" transform="translate(143.3988896170135 -118.8721961671372) rotate(472.1166871141103)"><path class="outline" fill="#A5ABB6" stroke="none" d="M 25 0.5 L 88.7864116142792 0.5 L 88.7864116142792 -0.5 L 25 -0.5 Z M 108.1223491142792 0.5 L 171.9087607285584 0.5 L 171.9087607285584 3.5 L 178.9087607285584 0 L 171.9087607285584 -3.5 L 171.9087607285584 -0.5 L 108.1223491142792 -0.5 Z"/><text text-anchor="middle" pointer-events="none" font-size="8px" fill="#000000" x="98.4543803642792" y="3" transform="rotate(180 98.4543803642792 0)" font-family="sans-serif">trek</text></g><g class="relationship" transform="translate(253.14951595858696 -26.030512950898355) rotate(220.2289855548143)"><path class="outline" fill="#A5ABB6" stroke="none" d="M 25 0.5 L 58.70827580408081 0.5 L 58.70827580408081 -0.5 L 25 -0.5 Z M 78.04421330408081 0.5 L 111.75248910816163 0.5 L 111.75248910816163 3.5 L 118.75248910816163 0 L 111.75248910816163 -3.5 L 111.75248910816163 -0.5 L 78.04421330408081 -0.5 Z"/><text text-anchor="middle" pointer-events="none" font-size="8px" fill="#000000" x="68.37624455408081" y="3" transform="rotate(180 68.37624455408081 0)" font-family="sans-serif">trek</text></g><g class="relationship" transform="translate(253.14951595858696 -26.030512950898355) rotate(220.2289855548143)"><path class="outline" fill="#A5ABB6" stroke="none" d="M 21.40063509461097,-12.933012701892217 L 21.90063509461097,-12.06698729810778 A 97.17561480609696 97.17561480609696 0 0 1 57.309833292313066,-24.188286100858477 L 57.17421687011041,-25.17904751816789 A 98.17561480609696 98.17561480609696 0 0 0 21.40063509461097,-12.933012701892217 Z M 79.24580439684243,-25.694688329072335 L 79.15660340822139,-24.698674682765713 A 97.17561480609696 97.17561480609696 0 0 1 115.09322198636238,-14.244171019801753 L 113.71618579540933,-11.578880917616718 L 121.54173825661964,-11.475301591275468 L 116.92927024096645,-17.797891156048465 L 115.5522340500134,-15.13260105386343 A 98.17561480609696 98.17561480609696 0 0 0 79.24580439684243,-25.694688329072335"/><text text-anchor="middle" pointer-events="none" font-size="8px" fill="#000000" x="68.20714785919094" y="-22.559406659645674" transform="rotate(180 68.20714785919094 -25.559406659645674)" font-family="sans-serif">road</text></g><g class="relationship" transform="translate(97.6898664335791 -30.782395535811645) rotate(361.75079560248827)"><path class="outline" fill="#A5ABB6" stroke="none" d="M 25 0.5 L 64.5981598320168 0.5 L 64.5981598320168 -0.5 L 25 -0.5 Z M 83.9340973320168 0.5 L 123.53225716403361 0.5 L 123.53225716403361 3.5 L 130.5322571640336 0 L 123.53225716403361 -3.5 L 123.53225716403361 -0.5 L 83.9340973320168 -0.5 Z"/><text text-anchor="middle" pointer-events="none" font-size="8px" fill="#000000" x="74.2661285820168" y="3" font-family="sans-serif">trek</text></g><g class="relationship" transform="translate(97.6898664335791 -30.782395535811645) rotate(361.75079560248827)"><path class="outline" fill="#A5ABB6" stroke="none" d="M 21.40063509461097,12.933012701892217 L 21.90063509461097,12.06698729810778 A 109.16560274342875 109.16560274342875 0 0 0 51.22388302499647,23.729833049629036 L 50.99249554756279,24.702694722883194 A 110.16560274342875 110.16560274342875 0 0 1 21.40063509461097,12.933012701892217 Z M 97.30996898420128,25.70589237036242 L 97.1209214775455,24.72392442779646 A 109.16560274342875 109.16560274342875 0 0 0 126.92164813559158,14.341654403227984 L 125.535546367222,11.681067646942315 L 133.36070086165307,11.550848069746555 L 128.76978382675102,17.889103411608875 L 127.38368205838144,15.228516655323208 A 110.16560274342875 110.16560274342875 0 0 1 97.30996898420128,25.70589237036242"/><text text-anchor="middle" pointer-events="none" font-size="8px" fill="#000000" x="74.10872838710037" y="30.166690768516773" font-family="sans-serif">twowheeler</text></g><g class="relationship" transform="translate(-46.35367082835528 -52.00021091040386) rotate(368.37949030680454)"><path class="outline" fill="#A5ABB6" stroke="none" d="M 24.018736134675446,6.953439040707552 L 24.277555179777966,5.987513214418485 A 182.17809838685687 182.17809838685687 0 0 0 58.29816447909983,11.721270596953957 L 58.226089118340084,12.718669786030915 A 183.17809838685687 183.17809838685687 0 0 1 24.018736134675446,6.953439040707552 Z M 80.28314562803942,12.980954358728354 L 80.23480781329432,11.982123314123896 A 182.17809838685687 182.17809838685687 0 0 0 114.38214050085975,7.058963643383404 L 113.67480919860644,4.14354215947192 L 121.30267918036209,5.894427518777592 L 115.32524890386416,10.946192288598715 L 114.61791760161086,8.030770804687231 A 183.17809838685687 183.17809838685687 0 0 1 80.28314562803942,12.980954358728354"/><text text-anchor="middle" pointer-events="none" font-size="8px" fill="#000000" x="69.256610867443" y="15.682167384232798" font-family="sans-serif">road</text></g><g class="relationship" transform="translate(-46.35367082835528 -52.00021091040386) rotate(289.69805750513524)"><path class="outline" fill="#A5ABB6" stroke="none" d="M 21.40063509461097,12.933012701892217 L 21.90063509461097,12.06698729810778 A 85.69232433990533 85.69232433990533 0 0 0 51.6918147370047,22.547298942774646 L 51.53946757373048,23.535625984720937 A 86.69232433990533 86.69232433990533 0 0 1 21.40063509461097,12.933012701892217 Z M 73.61172259699838,24.09313896807579 L 73.50946527029808,23.098380987893634 A 85.69232433990533 85.69232433990533 0 0 0 103.79175319017996,14.135437554395471 L 102.4248295050174,11.464947030364055 L 110.25071836044702,11.391030709688058 L 105.61431810373004,17.696091586437362 L 104.24739441856748,15.025601062405945 A 86.69232433990533 86.69232433990533 0 0 1 73.61172259699838,24.09313896807579"/><text text-anchor="middle" pointer-events="none" font-size="8px" fill="#000000" x="62.57039896293036" y="27.020099908854647" font-family="sans-serif">road</text></g><g class="relationship" transform="translate(-1.691158382050725 -176.75109712436938) rotate(381.7479018573938)"><path class="outline" fill="#A5ABB6" stroke="none" d="M 25 0.5 L 64.93627121875564 0.5 L 64.93627121875564 -0.5 L 25 -0.5 Z M 84.27220871875564 0.5 L 124.20847993751127 0.5 L 124.20847993751127 3.5 L 131.20847993751127 0 L 124.20847993751127 -3.5 L 124.20847993751127 -0.5 L 84.27220871875564 -0.5 Z"/><text text-anchor="middle" pointer-events="none" font-size="8px" fill="#000000" x="74.60423996875564" y="3" font-family="sans-serif">trek</text></g><g class="relationship" transform="translate(-1.691158382050725 -176.75109712436938) rotate(510.9507191419572)"><path class="outline" fill="#A5ABB6" stroke="none" d="M 24.018736134675446,-6.953439040707552 L 24.277555179777966,-5.987513214418485 A 251.10424844971038 251.10424844971038 0 0 1 77.19784325402026,-14.253413585303235 L 77.1497744785805,-15.252257613581776 A 252.10424844971038 252.10424844971038 0 0 0 24.018736134675446,-6.953439040707552 Z M 96.51846579989689,-15.43940384841784 L 96.48970647172307,-14.439817483443306 A 251.10424844971038 251.10424844971038 0 0 1 149.55983459086664,-7.198029015124975 L 148.8395156240027,-4.285789226581449 L 156.47511392527886,-6.002658057199665 L 150.52025988001859,-11.081015399849676 L 149.79994091315464,-8.16877561130615 A 252.10424844971038 252.10424844971038 0 0 0 96.51846579989689,-15.43940384841784"/><text text-anchor="middle" pointer-events="none" font-size="8px" fill="#000000" x="86.83715305826328" y="-12.031938910299175" transform="rotate(180 86.83715305826328 -15.031938910299175)" font-family="sans-serif">trek</text></g><g class="relationship" transform="translate(-159.69780226498867 -88.98883829673252) rotate(422.71573389832383)"><path class="outline" fill="#A5ABB6" stroke="none" d="M 24.018736134675446,-6.953439040707552 L 24.277555179777966,-5.987513214418485 A 206.32868266043172 206.32868266043172 0 0 1 65.77108020481047,-12.674062886568436 L 65.71336516759483,-13.672395984526815 A 207.32868266043172 207.32868266043172 0 0 0 24.018736134675446,-6.953439040707552 Z M 85.08781588988717,-13.88558705316558 L 85.05208292717496,-12.886225679399416 A 206.32868266043172 206.32868266043172 0 0 1 126.68269699054927,-7.114350920925485 L 125.97019281678902,-4.20018932582232 L 133.60115807475003,-5.937534781335426 L 127.63270255556293,-10.999899714396372 L 126.92019838180268,-8.085738119293207 A 207.32868266043172 207.32868266043172 0 0 0 85.08781588988717,-13.88558705316558"/><text text-anchor="middle" pointer-events="none" font-size="8px" fill="#000000" x="75.40360026013855" y="-10.505472121333128" font-family="sans-serif">trek</text></g><g class="relationship" transform="translate(-87.32206329091176 51.331118443699744) rotate(366.9262542398053)"><path class="outline" fill="#A5ABB6" stroke="none" d="M 24.018736134675446,6.953439040707552 L 24.277555179777966,5.987513214418485 A 200.82434739950702 200.82434739950702 0 0 0 50.89984437550074,11.223429972284094 L 50.773590378115074,12.215427919935252 A 201.82434739950702 201.82434739950702 0 0 1 24.018736134675446,6.953439040707552 Z M 97.24760664549486,12.735673670502422 L 97.1435910204777,11.74109800734135 A 200.82434739950702 200.82434739950702 0 0 0 123.87641934025577,7.102456359049933 L 123.16502604133771,4.18802338259388 L 130.79532850180624,5.928277490983806 L 124.82494373881318,10.988366994324668 L 124.11355043989512,8.073934017868616 A 201.82434739950702 201.82434739950702 0 0 1 97.24760664549486,12.735673670502422"/><text text-anchor="middle" pointer-events="none" font-size="8px" fill="#000000" x="74.00116982479467" y="16.317823803732693" font-family="sans-serif">twowheeler</text></g><g class="relationship" transform="translate(-87.32206329091176 51.331118443699744) rotate(366.9262542398053)"><path class="outline" fill="#A5ABB6" stroke="none" d="M 24.018736134675446,-6.953439040707552 L 24.277555179777966,-5.987513214418485 A 200.82434739950702 200.82434739950702 0 0 1 64.36971051809178,-12.478444301260907 L 64.31052939467291,-13.476691562529822 A 201.82434739950702 201.82434739950702 0 0 0 24.018736134675446,-6.953439040707552 Z M 83.68582543727494,-13.693585135363122 L 83.64900577440488,-12.69426320904202 A 200.82434739950702 200.82434739950702 0 0 1 123.87641934025577,-7.102456359049933 L 123.16502604133771,-4.18802338259388 L 130.79532850180624,-5.928277490983806 L 124.82494373881318,-10.988366994324668 L 124.11355043989512,-8.073934017868616 A 201.82434739950702 201.82434739950702 0 0 0 83.68582543727494,-13.693585135363122"/><text text-anchor="middle" pointer-events="none" font-size="8px" fill="#000000" x="74.00116982479463" y="-10.317823803732693" font-family="sans-serif">trek</text></g><g class="relationship" transform="translate(-159.69780226498867 -88.98883829673252) rotate(422.71573389832383)"><path class="outline" fill="#A5ABB6" stroke="none" d="M 24.018736134675446,6.953439040707552 L 24.277555179777966,5.987513214418485 A 206.32868266043172 206.32868266043172 0 0 0 52.29725690458112,11.450816931171886 L 52.174239151686315,12.443221401371773 A 207.32868266043172 207.32868266043172 0 0 1 24.018736134675446,6.953439040707552 Z M 98.65071133230958,12.954635578360296 L 98.54956100781035,11.959764424967204 A 206.32868266043172 206.32868266043172 0 0 0 126.68269699054927,7.114350920925485 L 125.97019281678902,4.20018932582232 L 133.60115807475003,5.937534781335426 L 127.63270255556293,10.999899714396372 L 126.92019838180268,8.085738119293207 A 207.32868266043172 207.32868266043172 0 0 1 98.65071133230958,12.954635578360296"/><text text-anchor="middle" pointer-events="none" font-size="8px" fill="#000000" x="75.40360026013855" y="16.505472121333128" font-family="sans-serif">twowheeler</text></g><g class="relationship" transform="translate(-1.691158382050725 -176.75109712436938) rotate(510.9507191419572)"><path class="outline" fill="#A5ABB6" stroke="none" d="M 24.018736134675446,6.953439040707552 L 24.277555179777966,5.987513214418485 A 251.10424844971038 251.10424844971038 0 0 0 63.70008106340999,13.238592127823807 L 63.598258668611166,14.233394721265057 A 252.10424844971038 252.10424844971038 0 0 1 24.018736134675446,6.953439040707552 Z M 110.0871387958247,14.682584536581942 L 110.00455779237421,13.686000180960633 A 251.10424844971038 251.10424844971038 0 0 0 149.55983459086664,7.198029015124975 L 148.8395156240027,4.285789226581449 L 156.47511392527886,6.002658057199665 L 150.52025988001859,11.081015399849676 L 149.79994091315464,8.16877561130615 A 252.10424844971038 252.10424844971038 0 0 1 110.0871387958247,14.682584536581942"/><text text-anchor="middle" pointer-events="none" font-size="8px" fill="#000000" x="86.83715305826328" y="18.031938910299175" transform="rotate(180 86.83715305826328 15.031938910299175)" font-family="sans-serif">twowheeler</text></g><g class="relationship" transform="translate(-46.35367082835528 -52.00021091040386) rotate(289.69805750513524)"><path class="outline" fill="#A5ABB6" stroke="none" d="M 25 0.5 L 53.084434280354444 0.5 L 53.084434280354444 -0.5 L 25 -0.5 Z M 72.42037178035444 0.5 L 100.50480606070889 0.5 L 100.50480606070889 3.5 L 107.50480606070889 0 L 100.50480606070889 -3.5 L 100.50480606070889 -0.5 L 72.42037178035444 -0.5 Z"/><text text-anchor="middle" pointer-events="none" font-size="8px" fill="#000000" x="62.752403030354444" y="3" font-family="sans-serif">trek</text></g><g class="relationship" transform="translate(-46.35367082835528 -52.00021091040386) rotate(289.69805750513524)"><path class="outline" fill="#A5ABB6" stroke="none" d="M 21.40063509461097,-12.933012701892217 L 21.90063509461097,-12.06698729810778 A 85.69232433990533 85.69232433990533 0 0 1 32.697115077422204,-17.328475153081456 L 32.323106291524255,-18.255900313442723 A 86.69232433990533 86.69232433990533 0 0 0 21.40063509461097,-12.933012701892217 Z M 93.07012595990713,-19.790281468858666 L 92.74341504390617,-18.84515715038738 A 85.69232433990533 85.69232433990533 0 0 1 103.79175319017996,-14.135437554395471 L 102.4248295050174,-11.464947030364055 L 110.25071836044702,-11.391030709688058 L 105.61431810373004,-17.696091586437362 L 104.24739441856748,-15.025601062405945 A 86.69232433990533 86.69232433990533 0 0 0 93.07012595990713,-19.790281468858666"/><text text-anchor="middle" pointer-events="none" font-size="8px" fill="#000000" x="62.570398962930355" y="-21.020099908854647" font-family="sans-serif">PublicTransport</text></g><g class="relationship" transform="translate(-1.691158382050725 -176.75109712436938) rotate(415.7514821873027)"><path class="outline" fill="#A5ABB6" stroke="none" d="M 25 0.5 L 75.12621273560845 0.5 L 75.12621273560845 -0.5 L 25 -0.5 Z M 94.46215023560845 0.5 L 144.5883629712169 0.5 L 144.5883629712169 3.5 L 151.5883629712169 0 L 144.5883629712169 -3.5 L 144.5883629712169 -0.5 L 94.46215023560845 -0.5 Z"/><text text-anchor="middle" pointer-events="none" font-size="8px" fill="#000000" x="84.79418148560845" y="3" font-family="sans-serif">trek</text></g><g class="relationship" transform="translate(-159.69780226498867 -88.98883829673252) rotate(470.0820447758073)"><path class="outline" fill="#A5ABB6" stroke="none" d="M 24.018736134675446,-6.953439040707552 L 24.277555179777966,-5.987513214418485 A 236.24085404196956 236.24085404196956 0 0 1 73.3998915110955,-13.731170459715742 L 73.34900574887297,-14.729874940131765 A 237.24085404196956 237.24085404196956 0 0 0 24.018736134675446,-6.953439040707552 Z M 92.71941345395639,-14.92494109879135 L 92.68865051455329,-13.925414390013998 A 236.24085404196956 236.24085404196956 0 0 1 141.95697109819127,-7.172582313944233 L 141.2390285912908,-4.259755755979365 L 148.8732234845927,-5.982854224170608 L 142.91422777405856,-11.056351057897391 L 142.1962852671581,-8.143524499932523 A 237.24085404196956 237.24085404196956 0 0 0 92.71941345395639,-14.92494109879135"/><text text-anchor="middle" pointer-events="none" font-size="8px" fill="#000000" x="83.03725271135616" y="-11.525221926994021" transform="rotate(180 83.03725271135616 -14.525221926994021)" font-family="sans-serif">trek</text></g><g class="relationship" transform="translate(-219.15041265056294 73.6309449297544) rotate(350.3988464070276)"><path class="outline" fill="#A5ABB6" stroke="none" d="M 21.40063509461097,12.933012701892217 L 21.90063509461097,12.06698729810778 A 86.91560634029862 86.91560634029862 0 0 0 52.28917328090623,22.723257632352826 L 52.13880598170471,23.71188783385935 A 87.91560634029862 87.91560634029862 0 0 1 21.40063509461097,12.933012701892217 Z M 74.21106817563512,24.264628828902218 L 74.11037354041179,23.269711450203246 A 86.91560634029862 86.91560634029862 0 0 0 104.99420248134639,14.14784429026672 L 103.62612489831483,11.47794471784709 L 111.45198108083079,11.400646525263015 L 106.81830592538847,17.70771038682623 L 105.45022834235691,15.037810814406596 A 87.91560634029862 87.91560634029862 0 0 1 74.21106817563512,24.264628828902218"/><text text-anchor="middle" pointer-events="none" font-size="8px" fill="#000000" x="63.17003341020489" y="27.184073472726922" font-family="sans-serif">road</text></g><g class="relationship" transform="translate(-219.15041265056294 73.6309449297544) rotate(350.3988464070276)"><path class="outline" fill="#A5ABB6" stroke="none" d="M 25 0.5 L 53.68260334216386 0.5 L 53.68260334216386 -0.5 L 25 -0.5 Z M 73.01854084216386 0.5 L 101.70114418432772 0.5 L 101.70114418432772 3.5 L 108.70114418432772 0 L 101.70114418432772 -3.5 L 101.70114418432772 -0.5 L 73.01854084216386 -0.5 Z"/><text text-anchor="middle" pointer-events="none" font-size="8px" fill="#000000" x="63.35057209216386" y="3" font-family="sans-serif">trek</text></g><g class="relationship" transform="translate(-219.15041265056294 73.6309449297544) rotate(350.3988464070276)"><path class="outline" fill="#A5ABB6" stroke="none" d="M 21.40063509461097,-12.933012701892217 L 21.90063509461097,-12.06698729810778 A 86.91560634029862 86.91560634029862 0 0 1 40.437537399123,-20.062131855180155 L 40.150812127161316,-21.020144703955424 A 87.91560634029862 87.91560634029862 0 0 0 21.40063509461097,-12.933012701892217 Z M 86.31876624344834,-22.176298100155435 L 86.08035205453226,-21.20513453281805 A 86.91560634029862 86.91560634029862 0 0 1 104.99420248134639,-14.14784429026672 L 103.62612489831483,-11.47794471784709 L 111.45198108083079,-11.400646525263015 L 106.81830592538847,-17.70771038682623 L 105.45022834235691,-15.037810814406596 A 87.91560634029862 87.91560634029862 0 0 0 86.31876624344834,-22.176298100155435"/><text text-anchor="middle" pointer-events="none" font-size="8px" fill="#000000" x="63.1700334102049" y="-21.184073472726922" font-family="sans-serif">twowheeler</text></g><g class="relationship" transform="translate(-159.69780226498867 -88.98883829673252) rotate(470.0820447758073)"><path class="outline" fill="#A5ABB6" stroke="none" d="M 24.018736134675446,6.953439040707552 L 24.277555179777966,5.987513214418485 A 236.24085404196956 236.24085404196956 0 0 0 59.90874489814293,12.655597830415417 L 59.80075154262259,13.649749446198172 A 237.24085404196956 237.24085404196956 0 0 1 24.018736134675446,6.953439040707552 Z M 106.28667225450502,14.117877434162097 L 106.19872161505197,13.121752600107754 A 236.24085404196956 236.24085404196956 0 0 0 141.95697109819127,7.172582313944233 L 141.2390285912908,4.259755755979365 L 148.8732234845927,5.982854224170608 L 142.91422777405856,11.056351057897391 L 142.1962852671581,8.143524499932523 A 237.24085404196956 237.24085404196956 0 0 1 106.28667225450502,14.117877434162097"/><text text-anchor="middle" pointer-events="none" font-size="8px" fill="#000000" x="83.03725271135622" y="17.52522192699402" transform="rotate(180 83.03725271135622 14.525221926994021)" font-family="sans-serif">twowheeler</text></g><g class="relationship" transform="translate(-219.15041265056294 73.6309449297544) rotate(390.04997242593174)"><path class="outline" fill="#A5ABB6" stroke="none" d="M 25 0.5 L 70.04353493835235 0.5 L 70.04353493835235 -0.5 L 25 -0.5 Z M 89.37947243835235 0.5 L 134.4230073767047 0.5 L 134.4230073767047 3.5 L 141.4230073767047 0 L 134.4230073767047 -3.5 L 134.4230073767047 -0.5 L 89.37947243835235 -0.5 Z"/><text text-anchor="middle" pointer-events="none" font-size="8px" fill="#000000" x="79.71150368835235" y="3" font-family="sans-serif">trek</text></g><g class="relationship" transform="translate(-75.09649098725639 156.96812173415938) rotate(328.4746688949791)"><path class="outline" fill="#A5ABB6" stroke="none" d="M 25 0.5 L 69.9640273888569 0.5 L 69.9640273888569 -0.5 L 25 -0.5 Z M 89.2999648888569 0.5 L 134.2639922777138 0.5 L 134.2639922777138 3.5 L 141.2639922777138 0 L 134.2639922777138 -3.5 L 134.2639922777138 -0.5 L 89.2999648888569 -0.5 Z"/><text text-anchor="middle" pointer-events="none" font-size="8px" fill="#000000" x="79.6319961388569" y="3" font-family="sans-serif">trek</text></g></g><g class="layer nodes"><g class="node" aria-label="graph-node179" transform="translate(-46.35367082835528,-52.00021091040386)"><circle class="outline" cx="0" cy="0" r="25" fill="#57C7E3" stroke="#23b3d7" stroke-width="2px"/><text class="caption" text-anchor="middle" pointer-events="none" x="0" y="5" font-size="10px" fill="#2A2C34" font-family="sans-serif"> Darjeeling</text></g><g class="node" aria-label="graph-node181" transform="translate(66.62844546990814,70.03275773114643)"><circle class="outline" cx="0" cy="0" r="25" fill="#F16667" stroke="#eb2728" stroke-width="2px"/><text class="caption" text-anchor="middle" pointer-events="none" x="0" y="5" font-size="10px" fill="#FFFFFF" font-family="sans-serif"> Sandakp…</text></g><g class="node" aria-label="graph-node184" transform="translate(97.6898664335791,-30.782395535811645)"><circle class="outline" cx="0" cy="0" r="25" fill="#D9C8AE" stroke="#c0a378" stroke-width="2px"/><text class="caption" text-anchor="middle" pointer-events="none" x="0" y="5" font-size="10px" fill="#2A2C34" font-family="sans-serif"> Tumbling</text></g><g class="node" aria-label="graph-node185" transform="translate(253.14951595858696,-26.030512950898355)"><circle class="outline" cx="0" cy="0" r="25" fill="#D9C8AE" stroke="#c0a378" stroke-width="2px"/><text class="caption" text-anchor="middle" pointer-events="none" x="0" y="5" font-size="10px" fill="#2A2C34" font-family="sans-serif"> Gairibus</text></g><g class="node" aria-label="graph-node180" transform="translate(143.3988896170135,-118.8721961671372)"><circle class="outline" cx="0" cy="0" r="25" fill="#D9C8AE" stroke="#c0a378" stroke-width="2px"/><text class="caption" text-anchor="middle" pointer-events="none" x="0" y="5" font-size="10px" fill="#2A2C34" font-family="sans-serif"> BhikeBh…</text></g><g class="node" aria-label="graph-node178" transform="translate(-1.691158382050725,-176.75109712436938)"><circle class="outline" cx="0" cy="0" r="25" fill="#57C7E3" stroke="#23b3d7" stroke-width="2px"/><text class="caption" text-anchor="middle" pointer-events="none" x="0" y="5" font-size="10px" fill="#2A2C34" font-family="sans-serif"> Rimbik</text></g><g class="node" aria-label="graph-node182" transform="translate(-159.69780226498867,-88.98883829673252)"><circle class="outline" cx="0" cy="0" r="25" fill="#D9C8AE" stroke="#c0a378" stroke-width="2px"/><text class="caption" text-anchor="middle" pointer-events="none" x="0" y="5" font-size="10px" fill="#2A2C34" font-family="sans-serif"> Sirikhola</text></g><g class="node" aria-label="graph-node183" transform="translate(-87.32206329091176,51.331118443699744)"><circle class="outline" cx="0" cy="0" r="25" fill="#D9C8AE" stroke="#c0a378" stroke-width="2px"/><text class="caption" text-anchor="middle" pointer-events="none" x="0" y="5" font-size="10px" fill="#2A2C34" font-family="sans-serif"> Gurdum</text></g><g class="node" aria-label="graph-node186" transform="translate(-219.15041265056294,73.6309449297544)"><circle class="outline" cx="0" cy="0" r="25" fill="#D9C8AE" stroke="#c0a378" stroke-width="2px"/><text class="caption" text-anchor="middle" pointer-events="none" x="0" y="5" font-size="10px" fill="#2A2C34" font-family="sans-serif"> Rammam</text></g><g class="node" aria-label="graph-node187" transform="translate(-75.09649098725639,156.96812173415938)"><circle class="outline" cx="0" cy="0" r="25" fill="#F16667" stroke="#eb2728" stroke-width="2px"/><text class="caption" text-anchor="middle" pointer-events="none" x="0" y="5" font-size="10px" fill="#FFFFFF" font-family="sans-serif"> Sabargr…</text></g></g></svg>